<svg width="276" height="396" viewBox="0 0 276 396" fill="none" xmlns="http://www.w3.org/2000/svg">
<path d="M137.849 0C62.131 0 0.531006 61.609 0.531006 137.329C0.531006 210.216 125.122 380.506 130.427 387.717L135.378 394.455C135.957 395.247 136.879 395.71 137.849 395.71C138.834 395.71 139.75 395.247 140.335 394.455L145.283 387.717C150.591 380.506 275.179 210.216 275.179 137.329C275.179 61.609 213.569 0 137.849 0ZM137.849 88.138C164.979 88.138 187.04 110.2 187.04 137.329C187.04 164.444 164.978 186.52 137.849 186.52C110.735 186.52 88.658 164.444 88.658 137.329C88.658 110.2 110.734 88.138 137.849 88.138Z" fill="#000000"/>
</svg>
